# xmcd CD database file
#
# Track frame offsets:
#	150
#	19652
#	34446
#	49157
#	70078
#	93787
#	111859
#	117542
#	135617
#	158212
#	176558
#	193578
#	217889
#
# Disc length: 3360 seconds
#
# Revision: 0
# Processed by: cddbd v1.5.2PL0 Copyright (c) Steve Scherf et al.
# Submitted via: CDex 1.70beta2
#
DISCID=b30d1e0d
DTITLE=Aja Soul Group - European Heart
DYEAR=2010
DGENRE=Jazz
TTITLE0=european heart
TTITLE1=another view
TTITLE2=peace
TTITLE3=blue planet
TTITLE4=back home
TTITLE5=true love
TTITLE6=for luis
TTITLE7=there for you
TTITLE8=thrills and chills
TTITLE9=someday
TTITLE10=free
TTITLE11=joy
TTITLE12=thankful
EXTD=YEAR: 2010
EXTT0=
EXTT1=
EXTT2=
EXTT3=
EXTT4=
EXTT5=
EXTT6=
EXTT7=
EXTT8=
EXTT9=
EXTT10=
EXTT11=
EXTT12=
PLAYORDER=
